{"title":"Chhota Bheem Himalayan Adventure 2016 DVDscr Hindi Movies xviD-T","uid":13942311,"size":529123019,"categoryP":"video","categoryS":"movies","magnet":"?xt=urn:btih:33e4092fd2b3dc4d70f45d3dadb7488336fc2f24&amp;dn=Chhota+Bheem+Himalayan+Adventure+2016+DVDscr+Hindi+Movies+xviD-T&amp;tr=udp%3A%2F%2Ftracker.leechers-paradise.org%3A6969&amp;tr=udp%3A%2F%2Fzer0day.ch%3A1337&amp;tr=udp%3A%2F%2Fopen.demonii.com%3A1337&amp;tr=udp%3A%2F%2Ftracker.coppersurfer.tk%3A6969&amp;tr=udp%3A%2F%2Fexodus.desync.com%3A6969","seeders":1,"leechers":0,"uploader":"TvMovize","files":1,"time":1458474760,"description":"Chhota Bheem Himalayan Adventure 2016 DVDscr Hindi Movies xviD-TvMovize.mp4\r\n\r\n++ ScreenShots ++\r\n \nhttp://www.image2be.com/movie/ChhotaBheemHimalayanAdventure/1.html  \nhttp://www.image2be.com/movie/ChhotaBheemHimalayanAdventure/2.html  \nhttp://www.image2be.com/movie/ChhotaBheemHimalayanAdventure/3.html  \nhttp://www.image2be.com/movie/ChhotaBheemHimalayanAdventure/4.html  \nhttp://www.image2be.com/movie/ChhotaBheemHimalayanAdventure/5.html \r\n\r\n++ Info ++\r\n\r\nFormat : MPEG-4 \r\nFormat profile : Base Media \r\nCodec ID : isom (isom/iso2/avc1/mp41) \r\nFile size : 505 MiB \r\nDuration : 1h 32mn \r\nOverall bit rate : 760 Kbps \r\nWriting application : Lavf57.4.100 \r\n\r\nVideo \r\nID : 1 \r\nFormat : AVC \r\nFormat/Info : Advanced Video Codec \r\nFormat profile :    \r\nFormat settings, CABAC : Yes \r\nFormat settings, ReFrames : 4 frames \r\nCodec ID : avc1 \r\nCodec ID/Info : Advanced Video Coding \r\nDuration : 1h 32mn \r\nBit rate : 601 Kbps \r\nWidth : 900 pixels \r\nHeight : 736 pixels \r\nDisplay aspect ratio : 4:3 \r\nOriginal display aspect ratio : 4:3 \r\nFrame rate mode : Constant \r\nFrame rate : 25.000 fps \r\nColor space : YUV \r\nChroma subsampling : 4:2:0 \r\nBit depth : 8 bits \r\nScan type : Progressive \r\nBits/(Pixel*Frame) : 0.036 \r\nStream size : 399 MiB (79%) \r\nWriting library : x264 core 142 \r\nEncoding settings : cabac=1 / ref=2 / deblock=1:0:0 / analyse=0x3:0x113 / me=hex / subme=4 / psy=1 / psy_rd=1.00:0.00 / mixed_ref=0 / me_range=16 / chroma_me=1 / trellis=1 / 8x8dct=1 / cqm=0 / deadzone=21,11 / fast_pskip=1 / chroma_qp_offset=0 / threads=48 / lookahead_threads=5 / sliced_threads=0 / nr=0 / decimate=1 / interlaced=0 / bluray_compat=0 / constrained_intra=0 / bframes=3 / b_pyramid=2 / b_adapt=1 / b_bias=0 / direct=1 / weightb=1 / open_gop=0 / weightp=1 / keyint=250 / keyint_min=25 / scenecut=40 / intra_refresh=0 / rc_lookahead=20 / rc=crf / mbtree=1 / crf=26.0 / qcomp=0.60 / qpmin=0 / qpmax=69 / qpstep=4 / vbv_maxrate=1000 / vbv_bufsize=4000 / crf_max=0.0 / nal_hrd=none / filler=0 / ip_ratio=1.40 / aq=1:1.00 \r\n\r\nAudio \r\nID : 2 \r\nFormat : AAC \r\nFormat/Info : Advanced Audio Codec \r\nFormat profile : LC \r\nCodec ID : 40 \r\nDuration : 1h 32mn \r\nBit rate mode : Constant \r\nBit rate : 153 Kbps \r\nChannel(s) : 2 channels \r\nChannel positions : Front: L R \r\nSampling rate : 44.1 KHz \r\nFrame rate : 43.066 fps (1024 spf) \r\nCompression mode : Lossy \r\nStream size : 101 MiB (20%) \r\nDefault : Yes \r\nAlternate group : 1","torrent":{"xt":"urn:btih:33e4092fd2b3dc4d70f45d3dadb7488336fc2f24","amp;dn":"Chhota+Bheem+Himalayan+Adventure+2016+DVDscr+Hindi+Movies+xviD-T","amp;tr":["udp%3A%2F%2Ftracker.leechers-paradise.org%3A6969","udp%3A%2F%2Fzer0day.ch%3A1337","udp%3A%2F%2Fopen.demonii.com%3A1337","udp%3A%2F%2Ftracker.coppersurfer.tk%3A6969","udp%3A%2F%2Fexodus.desync.com%3A6969"],"infoHash":"33e4092fd2b3dc4d70f45d3dadb7488336fc2f24","infoHashBuffer":{"type":"Buffer","data":[51,228,9,47,210,179,220,77,112,244,93,61,173,183,72,131,54,252,47,36]},"announce":[],"urlList":[]}}